<mxfile host="app.diagrams.net" agent="Mozilla/5.0 (Macintosh; Intel Mac OS X 10_15_7) AppleWebKit/537.36 (KHTML, like Gecko) Chrome/128.0.0.0 Safari/537.36" version="24.7.8">
  <diagram name="Page-1" id="Wep7OhLpCNztQQSD1lCc">
    <mxGraphModel dx="954" dy="489" grid="1" gridSize="10" guides="1" tooltips="1" connect="1" arrows="1" fold="1" page="1" pageScale="1" pageWidth="850" pageHeight="1100" math="0" shadow="0">
      <root>
        <mxCell id="0" />
        <mxCell id="1" parent="0" />
        <mxCell id="2NerEljYOd-J9alvKmSt-1" value="" style="sketch=0;outlineConnect=0;fontColor=#232F3E;gradientColor=none;fillColor=#232F3D;strokeColor=none;dashed=0;verticalLabelPosition=bottom;verticalAlign=top;align=center;html=1;fontSize=12;fontStyle=0;aspect=fixed;pointerEvents=1;shape=mxgraph.aws4.traditional_server;" vertex="1" parent="1">
          <mxGeometry x="140" y="170" width="45" height="78" as="geometry" />
        </mxCell>
        <mxCell id="2NerEljYOd-J9alvKmSt-2" value="" style="strokeWidth=2;html=1;shape=mxgraph.flowchart.database;whiteSpace=wrap;" vertex="1" parent="1">
          <mxGeometry x="140" y="310" width="47" height="50" as="geometry" />
        </mxCell>
        <mxCell id="2NerEljYOd-J9alvKmSt-3" value="" style="endArrow=classic;html=1;rounded=0;entryX=0.5;entryY=0;entryDx=0;entryDy=0;entryPerimeter=0;" edge="1" parent="1" source="2NerEljYOd-J9alvKmSt-1" target="2NerEljYOd-J9alvKmSt-2">
          <mxGeometry width="50" height="50" relative="1" as="geometry">
            <mxPoint x="400" y="280" as="sourcePoint" />
            <mxPoint x="450" y="230" as="targetPoint" />
          </mxGeometry>
        </mxCell>
        <mxCell id="2NerEljYOd-J9alvKmSt-4" value="Monolithic" style="text;html=1;align=center;verticalAlign=middle;whiteSpace=wrap;rounded=0;" vertex="1" parent="1">
          <mxGeometry x="121" y="480" width="83" height="40" as="geometry" />
        </mxCell>
        <mxCell id="2NerEljYOd-J9alvKmSt-5" value="" style="sketch=0;outlineConnect=0;fontColor=#232F3E;gradientColor=none;fillColor=#232F3D;strokeColor=none;dashed=0;verticalLabelPosition=bottom;verticalAlign=top;align=center;html=1;fontSize=12;fontStyle=0;aspect=fixed;pointerEvents=1;shape=mxgraph.aws4.traditional_server;" vertex="1" parent="1">
          <mxGeometry x="378" y="270" width="45" height="78" as="geometry" />
        </mxCell>
        <mxCell id="2NerEljYOd-J9alvKmSt-6" value="" style="strokeWidth=2;html=1;shape=mxgraph.flowchart.database;whiteSpace=wrap;" vertex="1" parent="1">
          <mxGeometry x="377" y="396" width="47" height="50" as="geometry" />
        </mxCell>
        <mxCell id="2NerEljYOd-J9alvKmSt-7" value="" style="endArrow=classic;html=1;rounded=0;entryX=0.5;entryY=0;entryDx=0;entryDy=0;entryPerimeter=0;" edge="1" parent="1" source="2NerEljYOd-J9alvKmSt-5" target="2NerEljYOd-J9alvKmSt-6">
          <mxGeometry width="50" height="50" relative="1" as="geometry">
            <mxPoint x="638" y="380" as="sourcePoint" />
            <mxPoint x="688" y="330" as="targetPoint" />
          </mxGeometry>
        </mxCell>
        <mxCell id="2NerEljYOd-J9alvKmSt-9" value="" style="sketch=0;aspect=fixed;pointerEvents=1;shadow=0;dashed=0;html=1;strokeColor=none;labelPosition=center;verticalLabelPosition=bottom;verticalAlign=top;align=center;fillColor=#00188D;shape=mxgraph.mscae.enterprise.web_server" vertex="1" parent="1">
          <mxGeometry x="385" y="150" width="53.2" height="70" as="geometry" />
        </mxCell>
        <mxCell id="2NerEljYOd-J9alvKmSt-10" value="" style="endArrow=classic;html=1;rounded=0;exitX=0.282;exitY=1;exitDx=0;exitDy=0;exitPerimeter=0;" edge="1" parent="1" source="2NerEljYOd-J9alvKmSt-9" target="2NerEljYOd-J9alvKmSt-5">
          <mxGeometry width="50" height="50" relative="1" as="geometry">
            <mxPoint x="400" y="280" as="sourcePoint" />
            <mxPoint x="450" y="230" as="targetPoint" />
          </mxGeometry>
        </mxCell>
        <mxCell id="2NerEljYOd-J9alvKmSt-11" value="N-tiered" style="text;html=1;align=center;verticalAlign=middle;whiteSpace=wrap;rounded=0;" vertex="1" parent="1">
          <mxGeometry x="355.2" y="480" width="83" height="40" as="geometry" />
        </mxCell>
        <mxCell id="2NerEljYOd-J9alvKmSt-12" value="" style="sketch=0;outlineConnect=0;fontColor=#232F3E;gradientColor=none;fillColor=#232F3D;strokeColor=none;dashed=0;verticalLabelPosition=bottom;verticalAlign=top;align=center;html=1;fontSize=12;fontStyle=0;aspect=fixed;pointerEvents=1;shape=mxgraph.aws4.traditional_server;" vertex="1" parent="1">
          <mxGeometry x="631" y="296" width="45" height="78" as="geometry" />
        </mxCell>
        <mxCell id="2NerEljYOd-J9alvKmSt-13" value="DB2" style="strokeWidth=2;html=1;shape=mxgraph.flowchart.database;whiteSpace=wrap;" vertex="1" parent="1">
          <mxGeometry x="630" y="396" width="47" height="50" as="geometry" />
        </mxCell>
        <mxCell id="2NerEljYOd-J9alvKmSt-14" value="" style="endArrow=classic;html=1;rounded=0;entryX=0.5;entryY=0;entryDx=0;entryDy=0;entryPerimeter=0;" edge="1" parent="1" source="2NerEljYOd-J9alvKmSt-12" target="2NerEljYOd-J9alvKmSt-13">
          <mxGeometry width="50" height="50" relative="1" as="geometry">
            <mxPoint x="891" y="380" as="sourcePoint" />
            <mxPoint x="941" y="330" as="targetPoint" />
          </mxGeometry>
        </mxCell>
        <mxCell id="2NerEljYOd-J9alvKmSt-15" value="" style="sketch=0;aspect=fixed;pointerEvents=1;shadow=0;dashed=0;html=1;strokeColor=none;labelPosition=center;verticalLabelPosition=bottom;verticalAlign=top;align=center;fillColor=#00188D;shape=mxgraph.mscae.enterprise.web_server" vertex="1" parent="1">
          <mxGeometry x="634" y="150" width="53.2" height="70" as="geometry" />
        </mxCell>
        <mxCell id="2NerEljYOd-J9alvKmSt-17" value="" style="sketch=0;outlineConnect=0;fontColor=#232F3E;gradientColor=none;fillColor=#232F3D;strokeColor=none;dashed=0;verticalLabelPosition=bottom;verticalAlign=top;align=center;html=1;fontSize=12;fontStyle=0;aspect=fixed;pointerEvents=1;shape=mxgraph.aws4.traditional_server;" vertex="1" parent="1">
          <mxGeometry x="700" y="296" width="45" height="78" as="geometry" />
        </mxCell>
        <mxCell id="2NerEljYOd-J9alvKmSt-18" value="DB2" style="strokeWidth=2;html=1;shape=mxgraph.flowchart.database;whiteSpace=wrap;" vertex="1" parent="1">
          <mxGeometry x="699" y="396" width="47" height="50" as="geometry" />
        </mxCell>
        <mxCell id="2NerEljYOd-J9alvKmSt-19" value="" style="endArrow=classic;html=1;rounded=0;entryX=0.5;entryY=0;entryDx=0;entryDy=0;entryPerimeter=0;" edge="1" parent="1" source="2NerEljYOd-J9alvKmSt-17" target="2NerEljYOd-J9alvKmSt-18">
          <mxGeometry width="50" height="50" relative="1" as="geometry">
            <mxPoint x="960" y="380" as="sourcePoint" />
            <mxPoint x="1010" y="330" as="targetPoint" />
          </mxGeometry>
        </mxCell>
        <mxCell id="2NerEljYOd-J9alvKmSt-20" value="" style="sketch=0;outlineConnect=0;fontColor=#232F3E;gradientColor=none;fillColor=#232F3D;strokeColor=none;dashed=0;verticalLabelPosition=bottom;verticalAlign=top;align=center;html=1;fontSize=12;fontStyle=0;aspect=fixed;pointerEvents=1;shape=mxgraph.aws4.traditional_server;" vertex="1" parent="1">
          <mxGeometry x="561" y="296" width="45" height="78" as="geometry" />
        </mxCell>
        <mxCell id="2NerEljYOd-J9alvKmSt-21" value="DB1" style="strokeWidth=2;html=1;shape=mxgraph.flowchart.database;whiteSpace=wrap;" vertex="1" parent="1">
          <mxGeometry x="560" y="396" width="47" height="50" as="geometry" />
        </mxCell>
        <mxCell id="2NerEljYOd-J9alvKmSt-22" value="" style="endArrow=classic;html=1;rounded=0;entryX=0.5;entryY=0;entryDx=0;entryDy=0;entryPerimeter=0;" edge="1" parent="1" source="2NerEljYOd-J9alvKmSt-20" target="2NerEljYOd-J9alvKmSt-21">
          <mxGeometry width="50" height="50" relative="1" as="geometry">
            <mxPoint x="821" y="380" as="sourcePoint" />
            <mxPoint x="871" y="330" as="targetPoint" />
          </mxGeometry>
        </mxCell>
        <mxCell id="2NerEljYOd-J9alvKmSt-23" value="" style="rounded=0;whiteSpace=wrap;html=1;" vertex="1" parent="1">
          <mxGeometry x="560" y="260" width="200" height="20" as="geometry" />
        </mxCell>
        <mxCell id="2NerEljYOd-J9alvKmSt-24" value="" style="endArrow=classic;html=1;rounded=0;exitX=0.5;exitY=1;exitDx=0;exitDy=0;exitPerimeter=0;" edge="1" parent="1" source="2NerEljYOd-J9alvKmSt-15" target="2NerEljYOd-J9alvKmSt-23">
          <mxGeometry width="50" height="50" relative="1" as="geometry">
            <mxPoint x="580" y="230" as="sourcePoint" />
            <mxPoint x="450" y="270" as="targetPoint" />
          </mxGeometry>
        </mxCell>
        <mxCell id="2NerEljYOd-J9alvKmSt-25" value="" style="endArrow=classic;html=1;rounded=0;exitX=0.25;exitY=1;exitDx=0;exitDy=0;" edge="1" parent="1" source="2NerEljYOd-J9alvKmSt-23" target="2NerEljYOd-J9alvKmSt-20">
          <mxGeometry width="50" height="50" relative="1" as="geometry">
            <mxPoint x="400" y="320" as="sourcePoint" />
            <mxPoint x="450" y="270" as="targetPoint" />
          </mxGeometry>
        </mxCell>
        <mxCell id="2NerEljYOd-J9alvKmSt-26" value="" style="endArrow=classic;html=1;rounded=0;exitX=0.5;exitY=1;exitDx=0;exitDy=0;" edge="1" parent="1" source="2NerEljYOd-J9alvKmSt-23" target="2NerEljYOd-J9alvKmSt-12">
          <mxGeometry width="50" height="50" relative="1" as="geometry">
            <mxPoint x="400" y="320" as="sourcePoint" />
            <mxPoint x="450" y="270" as="targetPoint" />
          </mxGeometry>
        </mxCell>
        <mxCell id="2NerEljYOd-J9alvKmSt-27" value="" style="endArrow=classic;html=1;rounded=0;exitX=0.75;exitY=1;exitDx=0;exitDy=0;" edge="1" parent="1" source="2NerEljYOd-J9alvKmSt-23" target="2NerEljYOd-J9alvKmSt-17">
          <mxGeometry width="50" height="50" relative="1" as="geometry">
            <mxPoint x="400" y="320" as="sourcePoint" />
            <mxPoint x="450" y="270" as="targetPoint" />
          </mxGeometry>
        </mxCell>
        <mxCell id="2NerEljYOd-J9alvKmSt-28" value="API Gateway" style="text;html=1;align=center;verticalAlign=middle;whiteSpace=wrap;rounded=0;" vertex="1" parent="1">
          <mxGeometry x="617" y="255" width="83" height="30" as="geometry" />
        </mxCell>
        <mxCell id="2NerEljYOd-J9alvKmSt-29" value="Application Server" style="text;html=1;align=center;verticalAlign=middle;whiteSpace=wrap;rounded=0;" vertex="1" parent="1">
          <mxGeometry x="109.25" y="140" width="106.5" height="30" as="geometry" />
        </mxCell>
        <mxCell id="2NerEljYOd-J9alvKmSt-30" value="Database" style="text;html=1;align=center;verticalAlign=middle;whiteSpace=wrap;rounded=0;" vertex="1" parent="1">
          <mxGeometry x="109.25" y="366" width="106.5" height="30" as="geometry" />
        </mxCell>
        <mxCell id="2NerEljYOd-J9alvKmSt-31" value="Database" style="text;html=1;align=center;verticalAlign=middle;whiteSpace=wrap;rounded=0;" vertex="1" parent="1">
          <mxGeometry x="355.2" y="450" width="106.5" height="30" as="geometry" />
        </mxCell>
        <mxCell id="2NerEljYOd-J9alvKmSt-32" value="Backend Server" style="text;html=1;align=center;verticalAlign=middle;whiteSpace=wrap;rounded=0;" vertex="1" parent="1">
          <mxGeometry x="280" y="296" width="106.5" height="30" as="geometry" />
        </mxCell>
        <mxCell id="2NerEljYOd-J9alvKmSt-33" value="Frontend Server" style="text;html=1;align=center;verticalAlign=middle;whiteSpace=wrap;rounded=0;" vertex="1" parent="1">
          <mxGeometry x="343.45" y="120" width="106.5" height="30" as="geometry" />
        </mxCell>
        <mxCell id="2NerEljYOd-J9alvKmSt-34" value="Web Server" style="text;html=1;align=center;verticalAlign=middle;whiteSpace=wrap;rounded=0;" vertex="1" parent="1">
          <mxGeometry x="593.5" y="120" width="106.5" height="30" as="geometry" />
        </mxCell>
        <mxCell id="2NerEljYOd-J9alvKmSt-35" value="Microservices" style="text;html=1;align=center;verticalAlign=middle;whiteSpace=wrap;rounded=0;" vertex="1" parent="1">
          <mxGeometry x="627" y="485" width="60" height="30" as="geometry" />
        </mxCell>
      </root>
    </mxGraphModel>
  </diagram>
</mxfile>
